# xmcd
#
# Track frame offsets: 
#        150
#        14909
#        30568
#        43618
#        58125
#        74272
#        88523
#        108593
#        120406
#        135103
#        149888
#
# Disc length: 2099 seconds
#
# Revision: 1
# Processed by: cddbd v1.5.2PL0 Copyright (c) Steve Scherf et al.
# Submitted via: ExactAudioCopyFreeDBPlugin 1.0
#
DISCID=9d08310b
DTITLE=Twilight - Still Loving You
DYEAR=1981
DGENRE=Funk
TTITLE0=Play My Game
TTITLE1=Just A Kiss Away
TTITLE2=Give Love A Try
TTITLE3=Come With Me
TTITLE4=Scorpittiarus
TTITLE5=We'll Be Special
TTITLE6=Still Loving You
TTITLE7=Love's The Way
TTITLE8=Straight To My Heart
TTITLE9=You Know It's Me
TTITLE10=Love's High
EXTD=
EXTT0=
EXTT1=
EXTT2=
EXTT3=
EXTT4=
EXTT5=
EXTT6=
EXTT7=
EXTT8=
EXTT9=
EXTT10=
PLAYORDER=
